<?xml version="1.0" encoding="utf-8"?>
<!-- Generator: Adobe Illustrator 23.0.2, SVG Export Plug-In . SVG Version: 6.00 Build 0)  -->
<svg version="1.1" id="Layer_1" xmlns="http://www.w3.org/2000/svg" xmlns:xlink="http://www.w3.org/1999/xlink" x="0px" y="0px"
	 viewBox="0 0 100 100" style="enable-background:new 0 0 100 100;" xml:space="preserve">
<style type="text/css">
	.st0{fill:#8AC43F;}
</style>
<g>
	<g>
		<path class="st0" d="M95.1,14.6h-5.12V6.7c0-0.82-0.65-1.47-1.45-1.47c-25.5,0-35.51,5.61-38.53,7.9
			c-3.04-2.29-13.06-7.9-38.56-7.9c-0.8,0-1.45,0.65-1.45,1.47v7.9H4.91c-1.6,0-2.91,1.3-2.91,2.94v69.33c0,1.6,1.32,2.89,2.91,2.89
			h31.77c1.43,0,2.72,0.56,3.46,1.51c1.72,2.2,5.42,3.5,9.86,3.5c4.45,0,8.12-1.3,9.85-3.5c0.73-0.95,2.03-1.51,3.45-1.51h31.8
			c1.6,0,2.9-1.3,2.9-2.89V17.54C98,15.89,96.7,14.6,95.1,14.6z M12.92,8.12c25.13,0.26,33.85,6.13,35.64,7.6v5.61
			c0,0.82,0.65,1.47,1.45,1.47c0.82,0,1.47-0.65,1.47-1.47v-5.65c1.83-1.51,10.62-7.3,35.6-7.56v68.91
			c-21.33,0.17-31.41,4.36-35.6,6.91V80.7c0-0.78-0.65-1.43-1.47-1.43c-0.8,0-1.45,0.65-1.45,1.43v3.24
			c-4.16-2.55-14.27-6.73-35.64-6.91V8.12z M95.1,86.87h-31.8c-2.35,0-4.45,0.95-5.74,2.59c-1.15,1.47-4.1,2.42-7.56,2.42
			s-6.43-0.95-7.58-2.42c-1.3-1.64-3.39-2.59-5.74-2.59H4.91V17.54h5.09v60.92c0,0.82,0.65,1.47,1.45,1.47
			c29.75,0,37.39,7.81,37.45,7.9h0.07c0.04,0.08,0.13,0.13,0.19,0.17c0.08,0.04,0.15,0.13,0.26,0.17c0.17,0.09,0.37,0.13,0.58,0.13
			c0.43,0,0.8-0.17,1.08-0.47c0.13-0.17,7.84-7.9,37.45-7.9c0.8,0,1.45-0.65,1.45-1.47V17.54h5.12V86.87z"/>
		<path class="st0" d="M51.82,75.12V59.93c0,0,0,0,0,0V45.96c0-0.79-0.64-1.43-1.43-1.43c-0.79,0-1.43,0.64-1.43,1.43v10.53
			l-4.27-4.27c-0.56-0.56-1.46-0.56-2.02,0c-0.56,0.56-0.56,1.46,0,2.02l6.29,6.29v13.1C41.15,72.9,35,66.31,35,58.3
			c0-6.66,10.29-19.25,15.39-24.81c5.1,5.55,15.39,18.14,15.39,24.81c0,6.34-3.8,11.95-9.69,14.3c-0.73,0.29-1.09,1.12-0.8,1.85
			c0.29,0.73,1.12,1.09,1.85,0.79c6.98-2.79,11.48-9.44,11.48-16.95c0-9.75-16.51-27.14-17.22-27.88c-0.54-0.56-1.52-0.56-2.06,0
			c-0.7,0.74-17.22,18.13-17.22,27.88c0,10.06,8.18,18.24,18.25,18.24C51.18,76.54,51.82,75.91,51.82,75.12z"/>
	</g>
</g>
</svg>
