<?xml version="1.0" encoding="utf-8"?>
<!-- Generator: Adobe Illustrator 23.0.2, SVG Export Plug-In . SVG Version: 6.00 Build 0)  -->
<svg version="1.1" id="Layer_1" xmlns="http://www.w3.org/2000/svg" xmlns:xlink="http://www.w3.org/1999/xlink" x="0px" y="0px"
	 viewBox="0 0 100 100" style="enable-background:new 0 0 100 100;" xml:space="preserve">
<style type="text/css">
	.st0{fill:#8AC43F;}
</style>
<g>
	<g>
		<path class="st0" d="M88.7,17.29h-2.71v-5.98c0-0.72-0.6-1.32-1.33-1.32c-22.55,0-31.48,5.14-34.23,7.29
			C47.68,15.14,38.74,10,16.21,10c-0.74,0-1.36,0.6-1.36,1.32v5.98h-2.69c-3.33,0-6.03,2.71-6.03,6.01v57.34
			c0,3.3,2.71,6.02,6.03,6.02h58.71c0.74,0,1.33-0.6,1.33-1.36c0-0.75-0.6-1.31-1.33-1.31H54.81c2.21-1.15,5.64-2.47,10.8-3.46
			c0.74-0.12,1.22-0.84,1.06-1.55c-0.12-0.76-0.84-1.24-1.55-1.08c-6.95,1.35-11.08,3.31-13.35,4.7V69.65
			c3.59-0.24,7.12-1.35,10.28-3.43l2.81,2.79l-0.58,0.6c-0.26,0.24-0.4,0.6-0.4,0.91c0,0.36,0.14,0.72,0.4,0.96l12.83,12.83
			c1.1,1.12,2.55,1.67,3.99,1.67c1.45,0,2.89-0.55,3.98-1.67l1.24-1.2c2.19-2.23,2.19-5.81,0-8.01L73.48,62.28
			c-0.52-0.52-1.37-0.52-1.89,0l-0.58,0.6l-2.81-2.83c5.5-8.33,4.42-19.32-2.73-26.45c-3.81-3.83-8.71-5.86-13.71-6.14V19.6
			c1.57-1.35,9.15-6.7,31.56-6.93v54.1c0,0.76,0.6,1.35,1.33,1.35s1.33-0.6,1.33-1.35V20h2.71c1.83,0,3.35,1.47,3.35,3.3v57.34
			c0,0.75-0.26,1.47-0.73,2.07c-0.46,0.55-0.36,1.43,0.22,1.87c0.58,0.48,1.44,0.36,1.87-0.2c0.86-1.08,1.32-2.39,1.32-3.75V23.31
			C94.72,20,92.03,17.29,88.7,17.29z M17.54,12.71c22.21,0.2,29.96,5.58,31.53,6.93v7.81c-4.92,0.36-9.76,2.35-13.5,6.14
			c-8.25,8.25-8.25,21.63,0,29.88c3.76,3.79,8.56,5.82,13.5,6.18v12.95c-3.79-2.35-12.75-6.17-31.53-6.33V12.71z M12.16,83.99
			c-1.85,0-3.35-1.51-3.35-3.35V23.31c0-1.83,1.49-3.3,3.35-3.3h2.69v57.57c0,0.75,0.62,1.35,1.36,1.35
			c16.73,0,25.58,2.91,29.82,5.06H12.16z M84.4,77.02c1.16,1.15,1.16,3.03,0,4.19l-1.21,1.2c-1.16,1.2-3.03,1.2-4.19,0L67.13,70.52
			l2.69-2.67l2.15-2.15l0,0l0.55-0.56L84.4,77.02z M65.39,59.41c-0.4,0.56-0.34,1.27,0.12,1.75l3.61,3.62l-1.2,1.15l-1.18,1.2
			l-3.59-3.59c-0.28-0.28-0.6-0.4-0.95-0.4c-0.28,0-0.56,0.08-0.8,0.24c-7.39,5.46-17.45,4.66-23.95-1.79
			c-7.19-7.21-7.19-18.93,0-26.14c7.21-7.17,18.91-7.17,26.1,0C70.06,41.95,70.81,52.04,65.39,59.41z"/>
	</g>
	<g>
		<path class="st0" d="M23.36,23.63c6.02,0.32,11.32,1.08,15.76,2.27c0.12,0.04,0.22,0.04,0.34,0.04c0.6,0,1.13-0.4,1.29-1
			c0.2-0.72-0.22-1.44-0.93-1.64c-4.62-1.24-10.12-2.03-16.32-2.35c-0.74-0.08-1.37,0.48-1.42,1.24
			C22.04,22.95,22.6,23.59,23.36,23.63z"/>
	</g>
	<g>
		<path class="st0" d="M23.36,32.99c2.27,0.16,4.48,0.32,6.56,0.6c0.06,0,0.1,0,0.16,0c0.68,0,1.26-0.52,1.33-1.16
			c0.08-0.75-0.44-1.43-1.18-1.51c-2.13-0.24-4.4-0.48-6.73-0.6c-0.74-0.04-1.37,0.52-1.42,1.27C22.04,32.31,22.6,32.95,23.36,32.99
			z"/>
	</g>
	<g>
		<path class="st0" d="M23.36,42.39c0.8,0.08,1.6,0.12,2.35,0.16c0.04,0,0.08,0,0.08,0c0.74,0,1.31-0.52,1.37-1.24
			s-0.5-1.35-1.24-1.43c-0.78-0.04-1.59-0.12-2.43-0.16c-0.72-0.04-1.37,0.52-1.42,1.23C22.04,41.72,22.6,42.35,23.36,42.39z"/>
	</g>
	<g>
		<path class="st0" d="M23.36,51.8c0.56,0.04,1.1,0.08,1.64,0.12c0.04,0,0.06,0,0.1,0c0.7,0,1.28-0.56,1.33-1.24
			c0.04-0.75-0.52-1.4-1.25-1.47c-0.54,0-1.1-0.04-1.67-0.08c-0.74-0.04-1.37,0.52-1.42,1.28C22.04,51.12,22.6,51.76,23.36,51.8z"/>
	</g>
	<g>
		<path class="st0" d="M28.02,58.85c-1.45-0.12-2.97-0.24-4.52-0.36c-0.74-0.04-1.37,0.56-1.42,1.28c-0.04,0.75,0.52,1.4,1.27,1.43
			c1.52,0.08,2.99,0.2,4.41,0.32c0.04,0,0.1,0,0.14,0c0.68,0,1.25-0.48,1.33-1.2C29.3,59.57,28.76,58.93,28.02,58.85z"/>
	</g>
	<g>
		<path class="st0" d="M41.21,39.21c-5.12,5.14-5.12,13.5,0,18.6c2.57,2.59,5.94,3.86,9.31,3.86s6.75-1.27,9.3-3.86
			c5.14-5.1,5.14-13.47,0-18.6C54.67,34.11,46.35,34.11,41.21,39.21z M57.92,41.12c4.08,4.1,4.08,10.76,0,14.82s-10.72,4.06-14.8,0
			s-4.08-10.72,0-14.82c2.03-2.03,4.72-3.07,7.39-3.07C53.2,38.05,55.87,39.09,57.92,41.12z"/>
	</g>
	<g>
		<path class="st0" d="M77.37,20.96c-6.2,0.32-11.69,1.11-16.32,2.35c-0.72,0.2-1.14,0.92-0.96,1.64c0.16,0.6,0.72,1,1.3,1
			c0.12,0,0.24,0,0.36-0.04c4.44-1.2,9.74-1.95,15.76-2.27c0.74-0.04,1.31-0.68,1.27-1.43C78.74,21.44,78.12,20.88,77.37,20.96z"/>
	</g>
	<g>
		<path class="st0" d="M77.37,30.32c-2.35,0.12-4.6,0.36-6.74,0.6c-0.73,0.08-1.25,0.76-1.18,1.51c0.08,0.64,0.66,1.16,1.33,1.16
			c0.04,0,0.1,0,0.16,0c2.07-0.28,4.28-0.44,6.56-0.6c0.74-0.04,1.31-0.68,1.27-1.4C78.74,30.84,78.12,30.28,77.37,30.32z"/>
	</g>
	<g>
		<path class="st0" d="M77.37,39.73c-0.84,0.04-1.66,0.12-2.43,0.16c-0.74,0.08-1.29,0.71-1.24,1.43c0.06,0.72,0.64,1.24,1.33,1.24
			c0.04,0,0.08,0,0.08,0c0.8-0.04,1.57-0.08,2.39-0.16c0.74-0.04,1.31-0.68,1.27-1.44C78.74,40.24,78.1,39.69,77.37,39.73z"/>
	</g>
	<g>
		<path class="st0" d="M77.37,49.13c-0.58,0.04-1.14,0.08-1.69,0.08c-0.74,0.08-1.3,0.72-1.24,1.47c0.04,0.68,0.64,1.24,1.33,1.24
			c0.04,0,0.06,0,0.1,0c0.53-0.04,1.07-0.08,1.63-0.12c0.74-0.04,1.31-0.68,1.27-1.4C78.74,49.64,78.09,49.09,77.37,49.13z"/>
	</g>
</g>
</svg>
